<svg width="25" height="29" viewBox="0 0 25 29" fill="none" xmlns="http://www.w3.org/2000/svg">
<path d="M19.8137 17.2266V23.8279" stroke="white" stroke-width="2"/>
<path d="M1.89587 1.66602V24.7705H13.5424" stroke="white" stroke-width="2"/>
<path d="M1 1.66602H13.0945" stroke="white" stroke-width="2"/>
<path d="M12.4257 1.36914L18.9178 7.79637" stroke="white" stroke-width="2"/>
<path d="M18.4698 6.85352V15.3409" stroke="white" stroke-width="2"/>
<path d="M12.6466 2.1377V7.79594H18.0219" stroke="white" stroke-width="2"/>
<path d="M19.8136 28.543L15.9343 23.592L23.693 23.592L19.8136 28.543Z" fill="white"/>
<path d="M13.855 11.5361L11.3574 15.3301L13.8257 19.0361H11.8555L10.5371 16.7144C10.4541 16.5728 10.3564 16.3921 10.2441 16.1724H10.2148C10.1953 16.2163 10.0928 16.397 9.90723 16.7144L8.56689 19.0361H6.604L9.15283 15.3594L6.73584 11.5361H8.71338L10.0098 13.9751C10.1074 14.1558 10.2026 14.3413 10.2954 14.5317H10.3174L11.9946 11.5361H13.855Z" fill="white"/>
</svg>
