<svg width="23" height="24" viewBox="0 0 23 24" fill="none" xmlns="http://www.w3.org/2000/svg">
<path d="M8.86822 0C8.25576 0 7.75969 0.496066 7.75969 1.10853V1.66279H1.10853C0.49662 1.66279 0 2.15941 0 2.77132C0 3.38322 0.49662 3.87985 1.10853 3.87985H1.66279V20.5078C1.66279 22.3418 3.15431 23.8333 4.98837 23.8333H17.1822C19.0162 23.8333 20.5078 22.3418 20.5078 20.5078V3.87985H21.062C21.6739 3.87985 22.1705 3.38322 22.1705 2.77132C22.1705 2.15941 21.6739 1.66279 21.062 1.66279H14.4109V1.10853C14.4109 0.496066 13.9148 0 13.3023 0H8.86822ZM3.87985 3.87985H18.2907V20.5078C18.2907 21.1191 17.7935 21.6163 17.1822 21.6163H4.98837C4.37702 21.6163 3.87985 21.1191 3.87985 20.5078V3.87985ZM6.37403 6.0969C5.9151 6.0969 5.54264 6.46881 5.54264 6.92829V18.5678C5.54264 19.0273 5.9151 19.3992 6.37403 19.3992C6.83296 19.3992 7.20543 19.0273 7.20543 18.5678V6.92829C7.20543 6.46881 6.83296 6.0969 6.37403 6.0969ZM11.0853 6.0969C10.4734 6.0969 9.97674 6.59352 9.97674 7.20543V18.2907C9.97674 18.9026 10.4734 19.3992 11.0853 19.3992C11.6972 19.3992 12.1938 18.9026 12.1938 18.2907V7.20543C12.1938 6.59352 11.6972 6.0969 11.0853 6.0969ZM15.7965 6.0969C15.3376 6.0969 14.9651 6.46881 14.9651 6.92829V18.5678C14.9651 19.0273 15.3376 19.3992 15.7965 19.3992C16.2554 19.3992 16.6279 19.0273 16.6279 18.5678V6.92829C16.6279 6.46881 16.2554 6.0969 15.7965 6.0969Z" fill="white"/>
</svg>
